<?xml version="1.0" encoding="UTF-8" standalone="no"?>
<svg
   xmlns:dc="http://purl.org/dc/elements/1.1/"
   xmlns:cc="http://creativecommons.org/ns#"
   xmlns:rdf="http://www.w3.org/1999/02/22-rdf-syntax-ns#"
   xmlns:svg="http://www.w3.org/2000/svg"
   xmlns="http://www.w3.org/2000/svg"
   xmlns:sodipodi="http://sodipodi.sourceforge.net/DTD/sodipodi-0.dtd"
   xmlns:inkscape="http://www.inkscape.org/namespaces/inkscape"
   width="92.55204mm"
   height="92.136078mm"
   viewBox="0 0 92.552042 92.136077"
   version="1.1"
   id="svg8"
   inkscape:version="1.0.2 (e86c8708, 2021-01-15)"
   sodipodi:docname="logo1.svg"
   inkscape:export-filename="/Users/stuart-warren/src/github.com/bottlerocketlabs/README/logo/logo1.png"
   inkscape:export-xdpi="96"
   inkscape:export-ydpi="96">
  <defs
     id="defs2" />
  <sodipodi:namedview
     id="base"
     pagecolor="#ffffff"
     bordercolor="#666666"
     borderopacity="1.0"
     inkscape:pageopacity="0.0"
     inkscape:pageshadow="2"
     inkscape:zoom="1.6839944"
     inkscape:cx="168.08783"
     inkscape:cy="172.28241"
     inkscape:document-units="mm"
     inkscape:current-layer="layer3"
     inkscape:document-rotation="0"
     showgrid="false"
     inkscape:window-width="1662"
     inkscape:window-height="1207"
     inkscape:window-x="0"
     inkscape:window-y="23"
     inkscape:window-maximized="0" />
  <metadata
     id="metadata5">
    <rdf:RDF>
      <cc:Work
         rdf:about="">
        <dc:format>image/svg+xml</dc:format>
        <dc:type
           rdf:resource="http://purl.org/dc/dcmitype/StillImage" />
        <dc:title></dc:title>
      </cc:Work>
    </rdf:RDF>
  </metadata>
  <g
     inkscape:groupmode="layer"
     id="layer3"
     inkscape:label="Layer 3"
     transform="translate(-59.332836,-90.624954)">
    <rect
       style="fill:#000080;stroke:none;stroke-width:2.13982;stroke-linecap:round;stroke-linejoin:round"
       id="rect903"
       width="92.55204"
       height="92.136078"
       x="59.332836"
       y="90.624954" />
  </g>
  <g
     inkscape:label="Layer 1"
     inkscape:groupmode="layer"
     id="layer1"
     style="display:inline"
     transform="translate(-59.332836,-90.624954)">
    <path
       d="m 109.92701,147.58193 5.8129,6.83419 v 0 0 c 0.84931,1.00542 2.00025,2.62467 2.67229,4.24392 0.40217,0.97102 0.64029,1.95262 0.55563,2.83633 -0.09,0.9816 -0.55034,1.81769 -1.55575,2.36273 -0.50007,0.27252 -1.13242,0.46567 -1.91823,0.55827 -0.0265,0.003 -0.0503,0.005 -0.0741,0.005 v 0 h -9.57792 -9.57792 c -0.03969,0 -0.07673,-0.003 -0.116416,-0.0106 -0.775229,-0.0952 -1.397,-0.28575 -1.889125,-0.55298 -1.021292,-0.55299 -1.479021,-1.39436 -1.563688,-2.38655 -0.07408,-0.88636 0.177271,-1.87854 0.595313,-2.86015 0.719666,-1.67746 1.944687,-3.3655 2.807229,-4.38679 l 5.611817,-6.64633 v -8.08831 c -0.0185,-0.09 -0.0423,-0.17992 -0.0661,-0.26723 -0.0318,-0.11377 -0.0662,-0.2249 -0.10583,-0.33867 -0.20109,-0.57944 -0.51065,-1.15623 -0.93134,-1.70921 -0.22225,-0.29369 -0.16139,-0.71173 0.12965,-0.93133 0.12171,-0.09 0.26194,-0.13494 0.40217,-0.13494 v 0 c 7.05819,0.0186 2.75175,0 9.40593,0 0.36777,0 0.66675,0.29898 0.66675,0.66675 0,0.17992 -0.0714,0.34396 -0.18785,0.46302 -0.26723,0.30427 -0.48684,0.64823 -0.66411,1.02658 -0.17991,0.37836 -0.32014,0.79375 -0.43127,1.24355 z m -2.49237,4.06665 h 4.37621 l -3.01361,-3.34698 c -0.127,-0.12171 -0.20373,-0.29104 -0.20373,-0.4789 v -8.38729 0 c 0,-0.0503 0.005,-0.10318 0.0185,-0.15346 0.13229,-0.55827 0.30957,-1.08743 0.5424,-1.57956 0.0423,-0.0873 0.0847,-0.17198 0.12964,-0.25664 h -6.93208 c 0.17463,0.33073 0.32279,0.66939 0.44186,1.01335 0.0476,0.14023 0.0926,0.28046 0.12964,0.42069 0.0344,0.12435 0.0635,0.24606 0.09,0.36512 0.0185,0.0609 0.0265,0.12436 0.0265,0.1905 v 8.38994 c 0,0.15081 -0.0529,0.30427 -0.15875,0.42862 -2.38918,2.87073 -6.863289,7.55386 -8.284102,10.88232 -0.997479,1.86266 -0.256645,4.2545 1.778,4.16983 h 9.466792 9.54617 c 0.59002,-0.0741 1.04775,-0.20902 1.3917,-0.39687 1.09803,-0.45244 1.016,-3.26496 0.5715,-3.74121 -0.0847,-0.20373 -0.17727,-0.40482 -0.27516,-0.60854 -0.037,0.008 -0.0794,0.0132 -0.11642,0.0132 h -6.4426 c -0.33602,0 -0.61384,-0.31221 -0.61384,-0.69321 v 0 c 0,-0.381 0.27517,-0.69321 0.61384,-0.69321 h 5.7785 c -0.32279,-0.508 -0.66411,-0.9816 -0.98161,-1.39171 -0.0291,0.005 -0.0609,0.008 -0.09,0.008 h -4.81541 c -1.87061,0 -1.62455,-1.38642 -0.52123,-1.38642 h 4.27831 l -1.23296,-1.44727 c -0.0767,0.0397 -0.16404,0.0635 -0.254,0.0635 h -5.24404 c -0.80963,0.003 -0.80963,-1.38377 0,-1.38377 z"
       id="path909"
       style="fill:#ff8080;stroke-width:0.264583"
       sodipodi:nodetypes="cccsccccsccscccccccccccsccscccccccscscccccccssccccccccsssssccsssccsccc" />
  </g>
  <g
     inkscape:groupmode="layer"
     id="layer2"
     inkscape:label="Layer 2"
     style="display:inline"
     transform="translate(-59.332836,-90.624954)" />
  <g
     inkscape:groupmode="layer"
     id="g895"
     inkscape:label="Layer 2 copy"
     style="display:inline"
     transform="translate(-59.332836,-90.624954)">
    <g
       id="g900"
       transform="translate(-0.17404124,2.9446151)"
       style="fill:#ff8080">
      <path
         id="path922"
         style="display:inline;fill:#ff8080;stroke-width:1.74828"
         d="m 400.4082,390.28711 c -1.03154,-0.0175 -2.06118,0.33185 -2.90039,1.04883 -5.40219,4.65048 -9.63418,9.33659 -12.74609,14.12695 -3.16441,4.87767 -5.19247,9.89378 -6.10156,15.13867 -0.87444,5.05255 -0.7164,10.26242 0.4375,15.76953 1.0315,4.91275 2.85003,10.03527 5.41992,15.4375 l -9.44922,8.63672 c -0.52422,0.47199 -0.94473,1.10115 -1.17188,1.78321 -0.20825,0.66429 -0.28028,1.38091 -0.1582,2.11523 l 2.2207,12.71094 c 0.0219,0.12321 0.0364,0.24473 0.0742,0.36719 l 0.0371,0.17578 c 0.0522,0.15707 0.1041,0.33143 0.19141,0.52343 l 0.0742,0.17579 c 0.50698,1.06644 1.39826,1.81779 2.42968,2.18554 1.03163,0.34946 2.2031,0.33087 3.26954,-0.17578 0.47198,-0.2273 5,-2.38943 5,-2.41211 13.60165,-6.60858 15.96237,-7.76223 29.84375,2.90235 L 417,480.90039 c 0.24442,0.192 0.50761,0.3502 0.76953,0.47266 0.15708,0.0881 0.33339,0.15796 0.52539,0.20898 0.13977,0.0491 0.2959,0.0853 0.45313,0.12305 1.10139,0.22696 2.204,-8e-4 3.0957,-0.56055 0.90909,-0.55948 1.58965,-1.43365 1.88672,-2.51758 0.0348,-0.0866 0.0515,-0.17441 0.0742,-0.26172 l 2.98828,-12.67382 c 0.23017,-0.71687 0.24887,-1.46854 0.0742,-2.18555 -0.15738,-0.68183 -0.49121,-1.31195 -0.96289,-1.85352 -0.0529,-0.0699 -0.10089,-0.13641 -0.17383,-0.20898 l -9.12695,-9.12695 c 2.11543,-5.05255 3.75946,-9.91249 4.77343,-14.65039 1.1362,-5.27982 1.48502,-10.43789 0.83789,-15.5254 l -0.0215,-0.0879 c -0.69929,-5.34977 -2.48395,-10.54171 -5.63086,-15.68164 -3.09456,-5.05262 -7.4816,-10.03487 -13.42578,-15 -0.76925,-0.69959 -1.73201,-1.0613 -2.72852,-1.08398 z m -0.14453,5.11914 c 5.36727,4.5281 9.31939,9.02061 12.08203,13.53125 2.76227,4.52803 4.3351,9.09182 4.94727,13.75977 l 0.0215,0.0723 c 0.57687,4.49307 0.24639,9.09245 -0.78515,13.88281 -1.04897,4.91267 -2.83285,9.96449 -5.12305,15.26172 -0.4018,0.96163 -0.15666,2.02889 0.52539,2.71094 l 10.03516,10.03516 -2.76368,11.73046 c -15.7346,-11.97575 -18.61853,-10.57759 -34.30078,-2.95507 -1.41611,0.6819 -2.81433,1.38044 -4.23046,2.0625 l -2.04688,-11.67774 10.56055,-9.59765 c 0.82087,-0.76918 1.0127,-1.95834 0.54101,-2.91993 -2.83222,-5.68191 -4.78892,-10.96268 -5.83789,-15.92773 l -0.006,-0.002 c -1.01397,-4.89525 -1.17171,-9.51045 -0.41992,-13.9336 0.80421,-4.59806 2.58746,-8.98642 5.38477,-13.30468 2.77973,-4.26584 6.57327,-8.48014 11.41601,-12.72852 z m -7.57226,87.85352 c -1.13469,0.1121 -2.07295,1.00958 -2.19532,2.1875 l -1.20703,11.29687 c 0.11997,3.05696 4.78397,3.32846 4.98208,-0.6678 l 1.10157,-10.12305 c 0.13973,-1.34617 -0.83936,-2.55156 -2.18555,-2.6914 -0.16828,-0.0175 -0.334,-0.018 -0.49609,-0.002 z"
         sodipodi:nodetypes="sccccccccccccccccccccccccccccccccccssscccccscccccccccccsscccccscc"
         transform="scale(0.26458333)" />
      <path
         id="path893"
         style="fill:#ff8080;stroke-width:0.462566"
         d="m 105.90065,103.26346 c 0.27293,-0.005 0.54535,0.0878 0.76739,0.27751 1.42933,1.23044 2.54905,2.4703 3.37241,3.73775 0.83725,1.29055 1.37384,2.61773 1.61437,4.00544 0.23136,1.33682 0.18954,2.71527 -0.11576,4.17236 -0.27292,1.29983 -0.75407,2.65516 -1.43402,4.0845 l 2.50011,2.28513 c 0.1387,0.12488 0.24996,0.29135 0.31006,0.47181 0.0551,0.17576 0.0742,0.36537 0.0418,0.55966 l -0.58756,3.3631 c -0.006,0.0326 -0.01,0.0648 -0.0196,0.0971 l -0.01,0.0465 c -0.0138,0.0416 -0.0275,0.0877 -0.0506,0.13849 l -0.0196,0.0465 c -0.13414,0.28216 -0.36996,0.48096 -0.64285,0.57826 -0.27295,0.0925 -0.58291,0.0875 -0.86507,-0.0465 -0.12488,-0.0601 -1.32292,-0.6322 -1.32292,-0.6382 -3.59877,-1.74852 -4.22337,-2.05376 -7.89615,0.76791 l -0.0321,0.0274 c -0.0647,0.0508 -0.1343,0.0926 -0.2036,0.12505 -0.0416,0.0233 -0.0882,0.0418 -0.13901,0.0553 -0.037,0.013 -0.0783,0.0226 -0.11989,0.0326 -0.29141,0.06 -0.58314,-2.1e-4 -0.81907,-0.14831 -0.240531,-0.14803 -0.420596,-0.37932 -0.499196,-0.66611 -0.0092,-0.0229 -0.01363,-0.0461 -0.01963,-0.0692 l -0.790649,-3.35329 c -0.0609,-0.18967 -0.06585,-0.38855 -0.01963,-0.57826 0.04164,-0.1804 0.129966,-0.34712 0.254765,-0.49041 0.014,-0.0185 0.02669,-0.0361 0.04599,-0.0553 l 2.41484,-2.41484 c -0.55971,-1.33682 -0.99469,-2.62268 -1.26297,-3.87625 -0.30062,-1.39695 -0.392913,-2.76169 -0.22169,-4.10776 l 0.006,-0.0233 c 0.18502,-1.41546 0.65722,-2.78916 1.48984,-4.1491 0.81876,-1.33684 1.9795,-2.65506 3.55223,-3.96875 0.20353,-0.1851 0.45826,-0.2808 0.72192,-0.2868 z m 0.0382,1.35444 c -1.42009,1.19806 -2.46576,2.38671 -3.19671,3.58015 -0.73085,1.19804 -1.14699,2.40554 -1.30896,3.6406 l -0.006,0.0191 c -0.15263,1.18879 -0.0652,2.40571 0.20774,3.67316 0.27754,1.29981 0.74952,2.63644 1.35547,4.038 0.10631,0.25443 0.0414,0.53681 -0.13901,0.71727 l -2.65513,2.65513 0.73122,3.10369 c 4.16311,-3.16859 4.92615,-2.79866 9.07541,-0.78187 0.37468,0.18042 0.74463,0.36525 1.11931,0.54571 l 0.54157,-3.08974 -2.79414,-2.53938 c -0.21719,-0.20351 -0.26794,-0.51814 -0.14314,-0.77256 0.74935,-1.50334 1.26707,-2.90054 1.54461,-4.21421 l 0.002,-5.3e-4 c 0.26828,-1.2952 0.31002,-2.51631 0.11111,-3.6866 -0.21278,-1.21657 -0.6846,-2.37766 -1.42472,-3.5202 -0.73547,-1.12867 -1.73918,-2.2437 -3.02049,-3.36775 z m 2.00349,23.24458 c 0.30022,0.0297 0.54847,0.26712 0.58085,0.57878 l 0.31936,2.98896 c -0.0317,0.80882 -1.26576,0.88065 -1.31818,-0.17669 l -0.29146,-2.67839 c -0.037,-0.35617 0.22209,-0.6751 0.57826,-0.7121 0.0445,-0.005 0.0884,-0.005 0.13126,-5.3e-4 z"
         sodipodi:nodetypes="sccccccccccccccccccccccccccccccccccssscccccscccccccccccsscccccscc" />
    </g>
  </g>
</svg>
